<svg xmlns="http://www.w3.org/2000/svg" version="1.1" xmlns:xlink="http://www.w3.org/1999/xlink" width="200" height="200"><svg xmlns="http://www.w3.org/2000/svg" version="1.1" xmlns:xlink="http://www.w3.org/1999/xlink" viewBox="0 0 200 200"><rect width="200" height="200" fill="url('#gradient')"></rect><defs><linearGradient id="SvgjsLinearGradient1001" gradientTransform="rotate(100 0.5 0.5)"><stop offset="0%" stop-color="#0ab5fa"></stop><stop offset="100%" stop-color="#ffffff"></stop></linearGradient></defs><g><g fill="#0a4e91" transform="matrix(4.2519031141868515,0,0,4.2519031141868515,5.436463384314791,130.23040657604443)" stroke="#0ab5fa" stroke-width="0.2"><path d="M5.75 0L1.07 0L1.07-14.22L5.65-14.22Q7.54-14.22 9.04-13.36Q10.55-12.51 11.39-10.95Q12.24-9.39 12.25-7.46L12.25-7.46L12.25-6.81Q12.25-4.85 11.42-3.31Q10.60-1.76 9.10-0.88Q7.60-0.01 5.75 0L5.75 0ZM5.65-11.57L4.50-11.57L4.50-2.64L5.69-2.64Q7.17-2.64 7.96-3.69Q8.75-4.74 8.75-6.81L8.75-6.81L8.75-7.42Q8.75-9.48 7.96-10.53Q7.17-11.57 5.65-11.57L5.65-11.57ZM25.89-14.22L25.89 0L22.48 0L22.48-5.94L17.43-5.94L17.43 0L14.00 0L14.00-14.22L17.43-14.22L17.43-8.57L22.48-8.57L22.48-14.22L25.89-14.22ZM28.06-14.22L32.56-14.22L35.73-4.33L38.90-14.22L43.41-14.22L43.41 0L39.97 0L39.97-3.32L40.30-10.12L36.87 0L34.60 0L31.15-10.13L31.48-3.32L31.48 0L28.06 0L28.06-14.22Z"></path></g></g></svg><style>@media (prefers-color-scheme: light) { :root { filter: none; } }
@media (prefers-color-scheme: dark) { :root { filter: none; } }
</style></svg>